HIERARCHY
ROOT Hips
{
	OFFSET 0.00000 0.00000 0.00000
	CHANNELS 6 Xposition Yposition Zposition Zrotation Yrotation Xrotation 
	JOINT LHipJoint
	{
		OFFSET 0 0 0
		CHANNELS 3 Zrotation Yrotation Xrotation
		JOINT LeftHip
		{
			OFFSET 1.75344 -1.53157 0.77399
			CHANNELS 3 Zrotation Yrotation Xrotation
			JOINT LeftKnee
			{
				OFFSET 2.25415 -6.19323 0.00000
				CHANNELS 3 Zrotation Yrotation Xrotation
				JOINT LeftAnkle
				{
					OFFSET 2.30342 -6.32861 0.00000
					CHANNELS 3 Zrotation Yrotation Xrotation
					JOINT LeftToe
					{
						OFFSET 0.10958 -0.30108 1.49206
						CHANNELS 3 Zrotation Yrotation Xrotation
						End Site
						{
							OFFSET 0.00000 -0.00000 0.77783
						}
					}
				}
			}
		}
	}
	JOINT RHipJoint
	{
		OFFSET 0 0 0
		CHANNELS 3 Zrotation Yrotation Xrotation
		JOINT RightHip
		{
			OFFSET -1.81912 -1.53156 0.77399
			CHANNELS 3 Zrotation Yrotation Xrotation
			JOINT RightKnee
			{
				OFFSET -2.22882 -6.12365 0.00000
				CHANNELS 3 Zrotation Yrotation Xrotation
				JOINT RightAnkle
				{
					OFFSET -2.21943 -6.09785 0.00000
					CHANNELS 3 Zrotation Yrotation Xrotation
					JOINT RightToe
					{
						OFFSET -0.18931 -0.52012 1.59379
						CHANNELS 3 Zrotation Yrotation Xrotation
						End Site
						{
							OFFSET -0.00000 -0.00000 0.84686
						}
					}
				}
			}
		}
	}
	JOINT lowerback
	{
		OFFSET 0 0 0
		CHANNELS 3 Zrotation Yrotation Xrotation
		JOINT Chest
		{
			OFFSET -0.00200 1.66634 -0.14248
			CHANNELS 3 Zrotation Yrotation Xrotation
			JOINT Chest2
			{
				OFFSET -0.00875 1.64542 0.09514
				CHANNELS 3 Zrotation Yrotation Xrotation
				JOINT lowerneck
				{
					OFFSET 0 0 0
					CHANNELS 3 Zrotation Yrotation Xrotation
					JOINT Neck
					{
						OFFSET 0.02257 1.59605 0.00839
						CHANNELS 3 Zrotation Yrotation Xrotation
						JOINT Head
						{
							OFFSET -0.10214 1.57530 -0.23335
							CHANNELS 3 Zrotation Yrotation Xrotation
							End Site
							{
								OFFSET -0.03588 1.60717 -0.08062
							}
						}
					}
				}
				JOINT LeftCollar
				{
					OFFSET 0 0 0
					CHANNELS 3 Zrotation Yrotation Xrotation
					JOINT LeftShoulder
					{
						OFFSET 2.54983 1.10186 0.40078
CHANNELS 3 Zrotation Xrotation Yrotation
						JOINT LeftElbow
						{
OFFSET 0 -4.288400 0.000000
CHANNELS 3 Zrotation Xrotation Yrotation
							JOINT LeftWrist
							{
OFFSET 0 -3.065520 -0.000000
CHANNELS 3 Zrotation Xrotation Yrotation
								JOINT lhand
								{
									OFFSET 0 0 0
CHANNELS 3 Zrotation Xrotation Yrotation
									JOINT LFingers
									{
OFFSET 0 -0.753040 0.000000
CHANNELS 3 Zrotation Xrotation Yrotation
										End Site
										{
OFFSET 0 -0.607120 0.000000
										}
									}
								}
								JOINT LThumb
								{
OFFSET 0 0.000000 0.000000
CHANNELS 3 Zrotation Xrotation Yrotation
									End Site
									{
OFFSET 0 -0.616390 0.616390
									}
								}
							}
						}
					}
				}
				JOINT RightCollar
				{
					OFFSET 0 0 0
					CHANNELS 3 Zrotation Yrotation Xrotation
					JOINT RightShoulder
					{
						OFFSET -2.60909 1.35448 0.21802
CHANNELS 3 Zrotation Xrotation Yrotation
						JOINT RightElbow
						{
OFFSET 0 -4.521720 -0.000000
CHANNELS 3 Zrotation Xrotation Yrotation
							JOINT RightWrist
							{
OFFSET 0 -2.891400 0.000000
CHANNELS 3 Zrotation Xrotation Yrotation
								JOINT rhand
								{
									OFFSET 0 0 0
CHANNELS 3 Zrotation Xrotation Yrotation
									JOINT RFingers
									{
OFFSET 0 -0.680540 0.000000
CHANNELS 3 Zrotation Xrotation Yrotation
										End Site
										{
OFFSET 0 -0.548670 0.000000
										}
									}
								}
								JOINT RThumb
								{
OFFSET 0 0.000000 0.000000
CHANNELS 3 Zrotation Xrotation Yrotation
									End Site
									{
OFFSET 0 -0.557050 0.557050
									}
								}
							}
						}
					}
				}
			}
		}
	}
}
MOTION
Frames: 8
Frame Time: 0.008333333333333333
8.618568 13.921507 34.303635 -178.936694 -2.869039 -166.973254 0.000000 0.000000 0.000000 -12.593956 -11.845940 -49.953876 10.798541 17.830112 62.119437 2.470491 -3.378963 -28.914298 3.513123 -11.482575 -33.925323 0.000000 0.000000 0.000000 23.481444 16.306984 -42.696672 -10.577314 -17.716947 61.394792 -1.799127 -9.091251 -29.995918 -0.100381 2.042628 -5.623394 4.669842 3.223631 19.796294 1.078865 5.495308 -2.033532 -3.097124 2.203567 -13.107668 -7.950234 -4.869741 -3.073854 2.296853 -7.414234 -13.874114 2.312388 -3.818932 -3.637851 0.000000 0.000000 0.000000 6.061036 25.639548 -16.518817 16.063596 -25.606761 3.673474 -15.411051 44.701424 32.806984 0.000000 0.000000 0.000000 -7.125000 0.000000 0.000000 -25.737235 -1.101459 -29.341446 0.000000 0.000000 0.000000 -12.981801 5.587823 28.364830 -12.634669 -20.748311 -2.323149 -1.480483 48.661272 55.336656 0.000000 0.000000 0.000000 7.125000 0.000000 0.000000 78.998913 72.407732 -60.383639
8.629105 13.889321 34.294304 -178.696083 -2.700716 -166.951761 0.000000 0.000000 0.000000 -12.121069 -11.826020 -50.638228 11.246424 18.049335 63.574112 2.548074 -3.180288 -29.425295 3.554168 -11.542125 -34.130970 0.000000 0.000000 0.000000 23.653331 16.822751 -43.226016 -11.022943 -17.942042 62.850777 -1.845782 -9.262352 -30.408155 -0.107143 2.109884 -5.809383 4.918526 3.323492 19.993081 0.928994 5.685123 -2.054395 -3.474973 2.261702 -13.191803 -7.587902 -4.951622 -2.701562 2.435558 -7.609501 -14.607742 2.344365 -3.941597 -3.965952 0.000000 0.000000 0.000000 6.532508 25.432643 -17.211452 16.135989 -25.704683 3.704821 -15.720752 44.563872 32.131753 0.000000 0.000000 0.000000 -7.125000 0.000000 0.000000 -25.942305 -0.485778 -29.342337 0.000000 0.000000 0.000000 -12.400403 5.322470 27.086289 -12.961407 -21.229533 -2.440047 -2.365449 49.402815 56.138169 0.000000 0.000000 0.000000 7.125000 0.000000 0.000000 81.242938 72.844397 -63.106318
8.637157 13.838379 34.283513 -178.484972 -2.546056 -166.926543 0.000000 0.000000 0.000000 -11.693580 -11.836469 -51.296746 11.671514 18.244059 64.939016 2.644257 -3.065981 -30.019542 3.531061 -11.508271 -34.014454 0.000000 0.000000 0.000000 23.784914 17.331594 -43.772377 -11.454722 -18.145928 64.244379 -1.866756 -9.508691 -30.708263 -0.117259 2.205148 -6.073001 5.102777 3.388296 20.197662 0.847406 5.821188 -2.080227 -3.726534 2.300243 -13.303233 -7.441753 -4.996179 -2.376003 2.654780 -7.729498 -15.354690 2.370380 -4.025726 -4.129541 0.000000 0.000000 0.000000 6.820743 25.227447 -17.857292 16.204718 -25.797419 3.734678 -15.884076 44.508452 31.881155 0.000000 0.000000 0.000000 -7.125000 0.000000 0.000000 -26.041923 -0.259145 -29.377385 0.000000 0.000000 0.000000 -12.013110 5.041093 26.128326 -13.283395 -21.699639 -2.558032 -3.924083 50.435779 56.674748 0.000000 0.000000 0.000000 7.125000 0.000000 0.000000 82.649715 73.459205 -65.214855
8.643500 13.774531 34.271719 -178.294160 -2.400798 -166.898760 0.000000 0.000000 0.000000 -11.297332 -11.867817 -51.937484 12.080920 18.421922 66.242142 2.753239 -3.009734 -30.671079 3.463805 -11.410140 -33.676236 0.000000 0.000000 0.000000 23.888759 17.835671 -44.330448 -11.876971 -18.335219 65.595051 -1.870059 -9.806808 -30.931208 -0.129683 2.319687 -6.390041 5.242688 3.428975 20.407607 0.812808 5.920263 -2.109478 -3.891187 2.325300 -13.433446 -7.444374 -5.015050 -2.082605 2.929412 -7.797698 -16.110807 2.392291 -4.083336 -4.179917 0.000000 0.000000 0.000000 6.982880 25.023425 -18.470929 16.270926 -25.886587 3.763510 -15.946666 44.509553 31.922777 0.000000 0.000000 0.000000 -7.125000 0.000000 0.000000 -26.068972 -0.300242 -29.435939 0.000000 0.000000 0.000000 -11.759393 4.748691 25.390976 -13.602113 -22.162094 -2.676765 -5.946317 51.669290 57.029007 0.000000 0.000000 0.000000 7.125000 0.000000 0.000000 83.480321 74.196607 -66.900758
8.645177 13.685306 34.258093 -178.182314 -2.318281 -166.857696 0.000000 0.000000 0.000000 -10.978074 -12.027339 -52.586621 12.463872 18.576383 67.448177 2.856551 -3.055064 -31.253952 3.352042 -11.241980 -33.102881 0.000000 0.000000 0.000000 23.878751 18.304681 -44.991747 -12.298825 -18.509507 66.928099 -1.887647 -9.937303 -31.128669 -0.117771 2.202608 -6.066281 5.345557 3.433186 20.599211 0.791814 5.964027 -2.149891 -4.003149 2.327457 -13.576401 -7.679439 -4.991891 -1.966626 3.302535 -7.761915 -16.487281 2.528021 -4.077236 -4.223438 0.000000 0.000000 0.000000 7.094013 24.810072 -19.154988 16.344276 -25.985158 3.795608 -16.344786 44.690550 32.218559 0.000000 0.000000 0.000000 -7.125000 0.000000 0.000000 -26.236686 -0.591803 -29.819864 0.000000 0.000000 0.000000 -11.608690 4.452340 24.803265 -13.890931 -22.577386 -2.786812 -8.579559 53.153336 57.069201 0.000000 0.000000 0.000000 7.125000 0.000000 0.000000 83.380864 75.135370 -67.867863
8.644705 13.584396 34.243625 -178.106828 -2.264655 -166.810518 0.000000 0.000000 0.000000 -10.694269 -12.245880 -53.239626 12.834644 18.720068 68.609505 2.957251 -3.147167 -31.805209 3.219784 -11.041576 -32.421255 0.000000 0.000000 0.000000 23.816318 18.757543 -45.700580 -12.720497 -18.676886 68.253033 -1.911813 -9.990615 -31.314396 -0.094654 1.978876 -5.447455 5.431370 3.420605 20.782369 0.777084 5.982322 -2.195445 -4.090849 2.319070 -13.725223 -8.021536 -4.949377 -1.932343 3.721010 -7.678251 -16.688943 2.716158 -4.041800 -4.263802 0.000000 0.000000 0.000000 7.181661 24.592421 -19.871474 16.420915 -26.088060 3.829209 -16.897405 44.954384 32.631372 0.000000 0.000000 0.000000 -7.125000 0.000000 0.000000 -26.469172 -0.998692 -30.353612 0.000000 0.000000 0.000000 -11.505422 4.154171 24.284458 -14.165983 -22.970960 -2.892859 -11.494150 54.752744 56.964779 0.000000 0.000000 0.000000 7.125000 0.000000 0.000000 82.853144 76.166852 -68.503989
8.647370 13.531553 34.232660 -177.995088 -2.271071 -166.771486 0.000000 0.000000 0.000000 -10.423865 -12.441204 -53.631115 13.124924 18.824974 69.511314 3.056362 -3.281186 -32.326117 3.113963 -10.875878 -31.863828 0.000000 0.000000 0.000000 23.852911 18.942861 -46.247737 -13.076708 -18.806749 69.360769 -1.947262 -9.903800 -31.472097 -0.076913 1.779301 -4.896370 5.320720 3.234087 21.061049 0.690620 5.697470 -2.046939 -4.054023 2.191045 -13.740599 -7.382868 -4.687509 -3.136064 3.660568 -7.303539 -16.352665 2.619725 -3.912552 -4.173815 0.000000 0.000000 0.000000 7.375829 23.944817 -20.355040 16.575316 -26.294020 3.897598 -17.577034 44.674818 32.484370 0.000000 0.000000 0.000000 -7.125000 0.000000 0.000000 -26.808423 -0.898884 -30.802509 0.000000 0.000000 0.000000 -11.120922 3.112637 24.281757 -14.352925 -23.236547 -2.966155 -13.728759 55.647974 56.686909 0.000000 0.000000 0.000000 7.125000 0.000000 0.000000 81.757178 76.970383 -68.310269
8.650935 13.492499 34.222701 -177.872948 -2.294713 -166.734791 0.000000 0.000000 0.000000 -10.157306 -12.629866 -53.947578 13.392112 18.918755 70.338669 3.155018 -3.427231 -32.838320 3.015727 -10.720136 -31.342033 0.000000 0.000000 0.000000 23.917913 19.051425 -46.748512 -13.414140 -18.925849 70.406195 -1.985949 -9.776785 -31.621758 -0.060715 1.586654 -4.364719 5.153707 2.997670 21.367134 0.583577 5.325650 -1.842760 -3.981473 2.028698 -13.717691 -6.462832 -4.362710 -4.694951 3.462732 -6.845330 -15.862060 2.441652 -3.756390 -4.046433 0.000000 0.000000 0.000000 7.600557 23.173866 -20.771784 16.752026 -26.529547 3.975967 -18.293101 44.239359 32.176765 0.000000 0.000000 0.000000 -7.125000 0.000000 0.000000 -27.178304 -0.653713 -31.227064 0.000000 0.000000 0.000000 -10.655740 1.857843 24.427120 -14.514591 -23.465416 -3.030056 -15.768292 56.341185 56.359280 0.000000 0.000000 0.000000 7.125000 0.000000 0.000000 80.498190 77.708519 -67.878480
